<?xml version="1.0" encoding="UTF-8"?>
<!DOCTYPE svg PUBLIC "-//W3C//DTD SVG 1.1//EN" "http://www.w3.org/Graphics/SVG/1.1/DTD/svg11.dtd">
<svg version="1.1" xmlns="http://www.w3.org/2000/svg" xmlns:xlink="http://www.w3.org/1999/xlink" x="0" y="0" width="500" height="500" viewBox="0, 0, 500, 500">
  <g id="Layer_2" transform="translate(0, 0)">
    <path d="M250,0 C388.071,-0 500,111.929 500,250 C500,388.071 388.071,500 250,500 C111.929,500 0,388.071 0,250 C-0,111.929 111.929,0 250,0 z M402.466,79.332 L212.341,79.332 L97.534,179.132 L173.673,179.132 C173.535,181.02 173.478,182.729 173.478,184.666 C173.478,203.194 179.895,218.521 192.742,230.765 C205.589,243.028 221.41,249.118 240.144,249.118 C244.52,249.118 248.811,248.791 252.978,248.208 C250.394,253.986 249.09,259.34 249.09,264.334 C249.09,273.112 253.089,282.495 261.061,292.46 C226.186,294.834 200.561,301.112 184.227,311.272 C174.866,317.049 167.338,324.342 161.658,333.078 C155.977,341.877 153.144,351.314 153.144,361.488 C153.144,370.065 154.977,377.787 158.672,384.655 C162.367,391.523 167.186,397.162 173.172,401.53 C179.144,405.946 186.033,409.619 193.811,412.613 C201.575,415.586 209.284,417.696 216.977,418.891 C224.645,420.084 232.27,420.667 239.827,420.667 C251.799,420.667 263.785,419.126 275.868,416.057 C287.923,412.959 299.229,408.375 309.799,402.285 C320.34,396.236 328.924,387.986 335.507,377.647 C342.076,367.264 345.369,355.598 345.369,342.681 C345.369,332.889 343.369,323.98 339.368,315.889 C335.396,307.825 330.535,301.186 324.744,296.028 C318.965,290.861 313.188,286.112 307.397,281.834 C301.618,277.527 296.73,273.166 292.758,268.666 C288.771,264.18 286.772,259.729 286.772,255.347 C286.772,250.973 288.313,246.75 291.408,242.667 C294.479,238.569 298.229,234.624 302.617,230.839 C307.006,227.062 311.395,222.868 315.769,218.276 C320.144,213.701 323.895,207.763 326.978,200.491 C330.076,193.221 331.603,184.985 331.603,175.818 C331.603,163.86 329.339,154.076 324.895,146.206 C324.367,145.298 323.812,144.603 323.228,143.52 L373.813,102.034 L373.813,117.25 C367.241,118.076 367.925,122.002 367.925,126.704 L367.925,241.075 C367.925,246.372 372.258,250.705 377.555,250.705 L381.1,250.705 C386.397,250.705 390.73,246.372 390.73,241.075 L390.73,126.704 C390.73,122.013 391.421,118.092 384.898,117.254 L384.897,117.255 L384.897,93.048 L402.466,79.332 z M265.564,303.776 C269.537,303.776 272.619,303.999 274.813,304.395 C275.217,304.589 277.508,306.235 281.689,309.34 C285.87,312.418 288.467,314.313 289.467,315.014 L289.466,315.014 C290.48,315.681 292.758,317.486 296.327,320.382 C299.926,323.265 302.369,325.445 303.674,326.972 C304.953,328.451 306.855,330.675 309.342,333.681 C311.842,336.681 313.536,339.285 314.425,341.445 C315.314,343.647 316.216,346.299 317.132,349.397 C318.008,352.459 318.452,355.598 318.452,358.785 C318.452,373.939 312.618,385.167 300.98,392.438 C289.313,399.709 275.41,403.348 259.258,403.348 C251.091,403.348 243.077,402.376 235.202,400.507 C227.341,398.626 219.814,395.764 212.633,391.972 C205.452,388.188 199.675,382.903 195.299,376.153 C190.91,369.362 188.715,361.562 188.715,352.82 C188.715,343.646 191.201,335.673 196.202,328.904 C201.174,322.125 207.702,317 215.786,313.512 C223.842,310.005 232.008,307.519 240.286,306.047 C248.563,304.534 256.994,303.776 265.564,303.776 z M245.813,120.222 C256.368,120.222 265.701,124.7 273.757,133.694 C281.841,142.659 287.632,152.728 291.106,163.888 C294.591,175.034 296.327,185.693 296.327,195.874 C296.327,207.827 293.035,217.75 286.481,225.611 L286.48,225.611 C279.897,233.487 270.716,237.423 258.966,237.423 C248.424,237.423 239.146,233.188 231.174,224.702 C223.174,216.236 217.465,206.632 213.979,195.874 C210.479,185.111 208.729,174.555 208.729,164.187 C208.729,152.014 211.925,141.652 218.312,133.097 C224.701,124.52 233.867,120.222 245.813,120.222 z" fill="#2B3E50"/>
  </g>
</svg>
