<?xml version="1.0" encoding="UTF-8"?>
<!DOCTYPE svg PUBLIC "-//W3C//DTD SVG 1.1//EN" "http://www.w3.org/Graphics/SVG/1.1/DTD/svg11.dtd">
<svg version="1.1" xmlns="http://www.w3.org/2000/svg" xmlns:xlink="http://www.w3.org/1999/xlink" x="0" y="0" width="564" height="564.2" viewBox="0, 0, 564, 564.2">
  <g id="Layer_1" transform="translate(-0.366, -1.43)">
    <g id="g175">
      <g id="svg_1">
        <path d="M247.465,322.53 C249.266,326.23 250.565,330.03 252.766,333.13 C268.766,355.83 284.565,378.73 301.465,400.73 C310.565,412.63 322.266,422.23 337.766,425.43 C339.465,425.83 341.766,428.73 341.866,430.53 C342.065,433.93 339.465,435.63 335.965,436.03 C308.266,439.13 285.965,430.93 269.465,407.33 C252.065,382.33 234.165,357.63 219.465,330.93 C218.765,329.53 216.865,328.03 215.465,327.93 C207.465,327.23 199.565,326.83 191.565,326.43 C187.065,326.13 185.365,328.13 185.465,332.73 C185.665,348.23 185.365,363.73 185.665,379.23 C185.865,389.03 186.765,398.83 187.665,408.63 C188.365,416.23 195.065,421.93 203.965,422.93 C207.465,423.33 210.965,423.33 214.365,423.93 C216.465,424.33 218.565,425.23 220.265,426.43 C223.365,428.83 222.465,432.53 218.765,433.63 C217.465,434.03 216.165,434.03 214.765,434.03 C187.965,434.03 161.065,434.03 134.265,434.03 C131.265,434.03 127.665,434.13 127.365,430.13 C127.065,426.13 130.365,424.53 133.665,423.63 C135.565,423.13 137.665,423.13 139.565,422.93 C147.165,422.13 154.865,415.13 155.965,407.63 C156.965,400.43 157.865,393.13 157.965,385.83 C158.165,337.63 158.065,289.53 158.065,241.33 C158.065,232.33 157.265,223.53 152.865,215.33 C150.465,210.83 146.465,209.33 142.265,207.93 C138.965,206.83 135.565,206.23 132.165,205.53 C128.065,204.73 126.965,202.03 127.065,198.23 C127.165,195.63 128.265,194.73 130.765,194.83 C135.765,194.93 140.765,194.83 145.765,194.83 C166.065,194.83 186.465,194.73 206.765,195.03 C220.365,195.23 234.265,195.03 247.665,197.13 C265.165,199.93 281.366,207.43 291.065,223.03 C299.065,235.93 301.965,250.43 299.366,266.03 C295.165,291.43 280.065,307.73 258.065,318.93 C255.165,320.33 251.865,321.03 247.465,322.53 z M187.365,260.03 C187.365,274.73 187.465,289.33 187.365,304.03 C187.365,307.73 188.465,309.43 192.565,309.33 C203.065,309.03 213.565,309.63 224.065,309.13 C237.165,308.43 248.766,303.53 257.366,293.43 C270.465,278.03 272.366,260.03 266.965,241.23 C264.165,231.63 258.665,222.93 249.266,218.73 C241.365,215.23 232.765,212.83 224.165,211.93 C214.165,210.73 203.865,211.83 193.665,211.53 C188.865,211.33 187.265,212.83 187.365,217.63 C187.565,231.73 187.365,245.83 187.365,260.03 z" fill="#FFFFFF" id="svg_2"/>
        <path d="M331.665,182.93 C331.665,175.23 331.366,167.63 331.766,159.93 C332.165,151.93 333.466,144.13 337.466,137.03 C343.366,126.63 353.266,121.73 364.165,118.43 C381.766,113.13 403.766,120.13 414.566,134.13 C416.665,136.93 419.466,139.53 416.566,143.33 C414.566,145.83 406.766,147.13 403.966,145.43 C402.466,144.53 401.165,143.13 399.966,141.83 C394.266,135.23 387.066,130.93 378.366,130.93 C364.066,131.03 351.966,139.33 350.665,154.83 C349.366,170.23 348.665,185.73 348.966,201.13 C349.266,212.43 352.766,223.13 364.466,228.63 C373.566,232.83 391.665,230.43 397.566,223.33 C400.665,219.53 402.466,214.43 404.066,209.73 C405.266,206.23 405.266,202.23 405.665,198.43 C406.066,194.93 404.466,193.03 400.966,192.93 C395.266,192.83 389.665,192.73 383.966,192.83 C380.366,192.93 379.066,191.33 379.665,187.93 C380.066,185.43 380.266,182.83 381.266,180.63 C381.866,179.33 383.866,178.03 385.266,177.93 C396.266,177.23 407.266,176.83 418.165,176.33 C421.165,176.23 423.266,176.73 423.266,180.53 C423.466,193.63 423.165,206.73 419.266,219.43 C414.866,234.03 401.366,246.03 384.866,246.33 C376.266,246.53 367.566,245.63 358.966,244.53 C355.966,244.13 352.766,242.13 350.366,240.03 C338.665,229.63 330.266,217.63 331.266,200.93 C331.866,194.93 331.566,188.93 331.665,182.93 C331.566,182.93 331.566,182.93 331.665,182.93 z" fill="#FFFFFF" id="svg_3"/>
      </g>
      <g id="svg_4">
        <path d="M564.366,259.53 C564.366,273.83 564.366,288.23 564.366,302.53 C563.766,304.73 562.866,306.83 562.566,309.03 C561.066,319.03 560.266,329.13 558.166,339.03 C555.266,352.53 552.666,366.33 547.766,379.13 C541.866,394.43 534.366,409.13 526.466,423.53 C506.166,460.63 477.566,490.63 443.166,514.83 C427.466,525.83 410.766,535.83 392.566,542.53 C378.666,547.63 364.766,553.23 350.466,556.73 C336.366,560.23 321.666,561.33 307.266,563.63 C305.966,563.83 304.766,564.93 303.466,565.63 C289.166,565.63 274.766,565.63 260.466,565.63 C259.266,564.93 258.166,563.83 256.866,563.63 C245.866,561.93 234.766,561.03 223.966,558.83 C201.166,554.23 179.266,546.63 158.366,536.33 C134.166,524.33 111.766,509.43 92.166,490.63 C81.666,480.53 71.666,469.83 62.366,458.63 C54.966,449.73 48.466,439.83 42.266,429.93 C31.466,412.83 23.066,394.63 16.566,375.33 C9.266,353.93 4.066,332.33 2.366,309.93 C2.266,308.43 1.066,307.03 0.366,305.53 C0.366,290.53 0.366,275.53 0.366,260.53 C1.066,259.43 2.166,258.33 2.366,257.13 C4.066,246.13 4.666,234.93 7.266,224.23 C11.066,208.93 15.866,193.73 21.066,178.83 C24.666,168.63 28.966,158.53 34.366,149.23 C44.366,132.33 55.166,115.93 67.966,100.83 C85.066,80.63 104.666,63.23 126.466,48.63 C146.266,35.43 167.266,24.03 190.066,17.03 C205.466,12.33 221.266,9.03 236.866,5.43 C243.966,3.73 251.166,2.73 258.266,1.43 C274.266,1.43 290.266,1.43 306.266,1.43 C309.466,2.13 312.666,2.83 315.966,3.43 C325.066,4.93 334.366,5.93 343.266,8.03 C354.466,10.73 365.666,13.53 376.266,17.73 C391.466,23.73 406.466,30.33 420.866,38.03 C432.166,44.13 442.266,52.43 453.166,59.43 C467.966,69.03 480.266,81.53 491.866,94.33 C509.566,114.03 524.966,135.73 535.766,160.13 C542.066,174.23 547.566,188.83 552.266,203.53 C555.866,214.93 557.766,226.83 560.266,238.53 C561.966,245.53 563.066,252.53 564.366,259.53 z M247.466,322.53 C251.866,321.03 255.166,320.33 258.066,318.83 C280.066,307.73 295.166,291.33 299.366,265.93 C301.966,250.33 299.066,235.73 291.066,222.93 C281.366,207.33 265.166,199.83 247.666,197.03 C234.266,194.93 220.466,195.13 206.766,194.93 C186.466,194.63 166.066,194.73 145.766,194.73 C140.766,194.73 135.766,194.83 130.766,194.73 C128.266,194.63 127.166,195.63 127.066,198.13 C126.966,201.93 127.966,204.63 132.166,205.43 C135.566,206.13 138.966,206.83 142.266,207.83 C146.466,209.23 150.466,210.73 152.866,215.23 C157.266,223.43 158.066,232.23 158.066,241.23 C158.166,289.43 158.166,337.53 157.966,385.73 C157.966,393.03 156.966,400.33 155.966,407.53 C154.966,415.03 147.166,422.03 139.566,422.83 C137.566,423.03 135.566,423.03 133.666,423.53 C130.366,424.43 127.066,426.03 127.366,430.03 C127.666,434.03 131.266,433.93 134.266,433.93 C161.066,433.93 187.966,433.93 214.766,433.93 C216.066,433.93 217.466,433.83 218.766,433.53 C222.566,432.43 223.366,428.83 220.266,426.33 C218.666,425.03 216.466,424.13 214.366,423.83 C210.966,423.23 207.366,423.23 203.966,422.83 C195.066,421.83 188.366,416.13 187.666,408.53 C186.766,398.73 185.866,388.93 185.666,379.13 C185.366,363.63 185.666,348.13 185.466,332.63 C185.366,328.13 187.066,326.13 191.566,326.33 C199.566,326.83 207.566,327.13 215.466,327.83 C216.866,327.93 218.766,329.43 219.466,330.83 C234.166,357.63 252.066,382.23 269.466,407.23 C285.966,430.83 308.266,439.03 335.966,435.93 C339.366,435.53 342.066,433.83 341.866,430.43 C341.766,428.63 339.466,425.73 337.766,425.33 C322.166,422.13 310.566,412.53 301.466,400.63 C284.566,378.63 268.866,355.63 252.766,333.03 C250.566,330.03 249.266,326.33 247.466,322.53 z M331.666,182.93 C331.566,182.93 331.566,182.93 331.666,182.93 C331.566,188.93 331.866,194.93 331.566,200.93 C330.566,217.63 339.066,229.63 350.666,240.03 C353.066,242.13 356.266,244.13 359.266,244.53 C367.866,245.63 376.466,246.53 385.166,246.33 C401.766,246.03 415.266,233.93 419.566,219.43 C423.466,206.73 423.666,193.63 423.566,180.53 C423.566,176.73 421.466,176.13 418.466,176.33 C407.466,176.83 396.466,177.23 385.566,177.93 C384.166,178.03 382.166,179.33 381.566,180.63 C380.566,182.83 380.366,185.43 379.966,187.93 C379.366,191.33 380.666,192.93 384.266,192.83 C389.966,192.73 395.566,192.83 401.266,192.93 C404.866,192.93 406.466,194.83 405.966,198.43 C405.466,202.23 405.566,206.23 404.366,209.73 C402.766,214.53 400.966,219.53 397.866,223.33 C392.066,230.43 373.866,232.83 364.766,228.63 C353.066,223.13 349.466,212.53 349.266,201.13 C348.866,185.73 349.566,170.23 350.966,154.83 C352.266,139.43 364.366,131.13 378.666,130.93 C387.266,130.83 394.466,135.23 400.266,141.83 C401.466,143.23 402.766,144.53 404.266,145.43 C407.066,147.13 414.866,145.93 416.866,143.33 C419.766,139.63 416.966,136.93 414.866,134.13 C404.066,120.03 382.066,113.13 364.466,118.43 C353.566,121.73 343.666,126.63 337.766,137.03 C333.766,144.13 332.466,152.03 332.066,159.93 C331.366,167.63 331.666,175.23 331.666,182.93 z" fill="#2B3E50" id="svg_5"/>
        <path d="M187.365,260.03 C187.365,245.83 187.566,231.73 187.266,217.53 C187.165,212.63 188.766,211.23 193.566,211.43 C203.766,211.73 213.965,210.73 224.066,211.83 C232.566,212.83 241.266,215.23 249.165,218.63 C258.565,222.83 264.065,231.53 266.866,241.13 C272.266,259.93 270.366,277.93 257.266,293.33 C248.665,303.43 237.066,308.33 223.965,309.03 C213.465,309.53 202.965,309.03 192.465,309.23 C188.365,309.33 187.266,307.73 187.266,303.93 C187.465,289.33 187.365,274.73 187.365,260.03 z" fill="#2B3E50" id="svg_6"/>
      </g>
    </g>
  </g>
</svg>
